<svg xmlns="http://www.w3.org/2000/svg" viewBox="0 0 512 512" width="512" height="512" role="img" aria-label="fluxtty terminal icon">
  <defs>
    <linearGradient id="screen-bg" x1="54" y1="58" x2="458" y2="454" gradientUnits="userSpaceOnUse">
      <stop offset="0" stop-color="#1A222C"/>
      <stop offset="0.54" stop-color="#0D1117"/>
      <stop offset="1" stop-color="#07090D"/>
    </linearGradient>

    <linearGradient id="header-bg" x1="68" y1="70" x2="444" y2="136" gradientUnits="userSpaceOnUse">
      <stop offset="0" stop-color="#202B36"/>
      <stop offset="1" stop-color="#14191F"/>
    </linearGradient>

    <linearGradient id="f-fill" x1="126" y1="142" x2="390" y2="390" gradientUnits="userSpaceOnUse">
      <stop offset="0" stop-color="#8FB9F0"/>
      <stop offset="0.52" stop-color="#4C95DC"/>
      <stop offset="1" stop-color="#36B3C0"/>
    </linearGradient>

    <linearGradient id="f-highlight" x1="142" y1="154" x2="350" y2="210" gradientUnits="userSpaceOnUse">
      <stop offset="0" stop-color="#E6EDF3" stop-opacity="0.32"/>
      <stop offset="1" stop-color="#E6EDF3" stop-opacity="0"/>
    </linearGradient>

    <filter id="panel-depth" x="-16%" y="-16%" width="132%" height="136%">
      <feDropShadow dx="0" dy="18" stdDeviation="18" flood-color="#000000" flood-opacity="0.38"/>
      <feDropShadow dx="0" dy="2" stdDeviation="2" flood-color="#388BFD" flood-opacity="0.12"/>
    </filter>

    <filter id="f-depth" x="-12%" y="-12%" width="124%" height="124%">
      <feDropShadow dx="0" dy="8" stdDeviation="6" flood-color="#000000" flood-opacity="0.28"/>
      <feDropShadow dx="0" dy="0" stdDeviation="3" flood-color="#39C5CF" flood-opacity="0.16"/>
    </filter>
  </defs>

  <g filter="url(#panel-depth)">
    <rect x="48" y="60" width="416" height="388" rx="46" fill="url(#screen-bg)" stroke="#686E75" stroke-width="5" opacity="0.97"/>
    <rect x="58" y="70" width="396" height="368" rx="38" fill="none" stroke="#E6EDF3" stroke-width="2" opacity="0.05"/>
    <path d="M48 106C48 80.6 68.6 60 94 60H418C443.4 60 464 80.6 464 106V136H48Z" fill="url(#header-bg)"/>
    <path d="M50.5 136H461.5" stroke="#30363D" stroke-width="5"/>
  </g>

  <g opacity="0.86">
    <path d="M92 91L120 106L92 121V109L107 106L92 103Z" fill="#39C5CF"/>
    <rect x="140" y="100" width="46" height="12" rx="6" fill="#388BFD" opacity="0.76"/>
    <rect x="206" y="94" width="13" height="24" rx="6.5" fill="#E6EDF3" opacity="0.5"/>
  </g>

  <g filter="url(#f-depth)" fill="url(#f-fill)" opacity="0.88">
    <rect x="126" y="152" width="72" height="258" rx="14"/>
    <rect x="190" y="152" width="176" height="68" rx="14"/>
    <rect x="190" y="276" width="150" height="68" rx="14"/>
  </g>

  <g fill="url(#f-highlight)" opacity="0.68">
    <rect x="138" y="162" width="48" height="104" rx="11"/>
    <rect x="202" y="162" width="132" height="23" rx="10"/>
  </g>
</svg>
